<svg width="160" height="52" viewBox="0 0 160 52" fill="none" xmlns="http://www.w3.org/2000/svg">
<path fill-rule="evenodd" clip-rule="evenodd" d="M0.779999 25.2C0.779999 25.77 0.860005 26.27 0.880005 26.82L1.25999 30.07C1.35999 30.47 1.42999 31.22 1.56999 31.6C1.85999 32.4 1.99 33.26 2.37 34.03C2.43 34.2 2.36999 34.01 2.42999 34.24C2.55999 34.74 2.87001 35.35 3.10001 35.79C3.23001 36.06 3.33 36.42 3.5 36.67L3.89999 37.36C3.89999 37.36 3.9 37.38 3.92 37.38L4.11 37.76C4.17 37.84 4.15 37.8 4.19 37.86L4.89999 39.06C4.97999 39.21 5.04999 39.23 5.14999 39.4C5.24999 39.57 5.32 39.65 5.44 39.8C5.57 39.97 5.79999 40.43 6.00999 40.49C6.00999 40.32 5.94999 40.2 5.92999 40.05C5.90999 39.8 5.89 39.78 5.83 39.59L5.7 38.58C5.64 37.89 5.50999 37.22 5.50999 36.5L5.41 34.95C5.41 34.49 5.35 33.67 5.39 33.31L5.37 14.6C5.37 14.47 5.39 14.45 5.41 14.35H12.08C12.21 14.9 12.12 21.75 12.12 22.93V34.8C12.12 35.53 12.2 37.19 12.33 37.86C12.35 37.99 12.39 38.09 12.43 38.28C12.56 38.95 12.93 39.54 13.29 40.1C13.48 40.41 14.19 41.09 14.51 41.3C14.91 41.57 15.33 41.8 15.79 41.97C17.64 42.68 20.47 42.64 22.17 41.95C22.38 41.87 22.53 41.78 22.76 41.68C23.05 41.55 23.24 41.34 23.49 41.16L24.12 40.51C24.75 39.78 24.92 39 25.13 38.1C25.28 37.43 25.28 35.56 25.28 34.81V4.63H40L39.85 4.53C39.45 4.19 38.44 3.67 37.98 3.46C37.5 3.23 37.06 2.96 36.55 2.75C36.15 2.6 35.84 2.41 35.42 2.29C34.94 2.14 34.54 1.95 34.06 1.81L33.03 1.52C32.44 1.35 31.88 1.21 31.29 1.12C31.16 1.1 30.98 1.02 30.85 1.02C30.68 0.980001 30.51 0.98 30.37 0.96C30.12 0.92 30.14 0.9 29.95 0.88C29.61 0.82 29.45 0.86 29.03 0.8C27.77 0.61 25.07 0.59 23.7 0.8C23.47 0.82 23.22 0.840001 23.05 0.860001L21.77 1.05C21.29 1.18 20.74 1.22 20.22 1.39L17.26 2.31C17.13 2.35 17.09 2.39 16.99 2.41C16.89 2.45 16.8 2.47 16.72 2.51L16.2 2.74C16.05 2.82 16.1 2.8 15.93 2.84C15.41 3.03 14.86 3.36 14.34 3.57C13.98 3.72 13.67 3.93 13.33 4.12C12.57 4.5 11.86 4.96 11.19 5.42L10.31 6.07C10.23 6.15 10.21 6.17 10.12 6.26C9.91 6.43 9.7 6.66 9.47 6.78C9.26 6.91 9.05 7.14 8.86 7.33L6.25999 10.12C5.75999 10.69 5.09 11.71 4.64 12.34L4.22 13.03C3.99 13.39 3.58999 14.16 3.39999 14.54L2.14 17.54C1.76 18.69 1.36 19.97 1.2 21.19C1.12 21.84 0.969993 22.49 0.929993 23.14L0.889999 24.5C0.889999 24.84 0.789993 24.9 0.789993 25.21L0.779999 25.2Z" fill="#9CC72F"/>
<path fill-rule="evenodd" clip-rule="evenodd" d="M15.82 48.07L17.67 48.83C18.28 49.08 18.99 49.31 19.62 49.48C19.81 49.52 20 49.52 20.14 49.56C20.35 49.62 20.39 49.69 20.64 49.73L21.19 49.86C21.4 49.9 21.57 49.9 21.78 49.92L22.89 50.15C23.58 50.21 24.23 50.3 24.97 50.3C25.47 50.32 25.52 50.38 25.81 50.38C26.21 50.4 26.67 50.44 27.09 50.38C27.3 50.34 27.34 50.3 27.66 50.3C28.39 50.3 29.07 50.28 29.76 50.13L30.66 50.03C30.93 49.99 30.91 49.95 31.21 49.9L32.3 49.67C32.51 49.61 32.55 49.57 32.82 49.54L34.08 49.18C34.18 49.14 34.21 49.12 34.31 49.08C34.54 49 34.6 49.04 34.81 48.93C35.15 48.76 35.94 48.53 36.22 48.38L39.05 46.95L40.83 45.82C41.35 45.48 41.52 45.32 41.96 44.94C42.06 44.86 42.21 44.81 42.34 44.71L43.03 44.08C43.16 43.98 43.28 43.91 43.41 43.79C43.83 43.35 44.33 42.99 44.71 42.49C44.81 42.36 44.92 42.28 45.02 42.15C45.23 41.96 45.29 41.79 45.48 41.6C45.48 41.6 45.54 41.54 45.56 41.54L46.78 39.97C46.88 39.8 46.97 39.78 47.07 39.61C47.15 39.42 47.17 39.38 47.3 39.21C47.64 38.75 48.29 37.66 48.52 37.2C48.81 36.59 49.15 36.03 49.4 35.42L50.39 32.8C50.43 32.7 50.45 32.67 50.47 32.59L50.91 30.81C50.93 30.73 50.93 30.64 50.95 30.54C51.03 30.02 51.2 29.41 51.24 28.9C51.26 28.65 51.28 28.5 51.3 28.29C51.32 28.08 51.36 27.87 51.38 27.7C51.44 27.07 51.36 26.42 51.46 25.79C51.5 25.45 51.42 23.73 51.38 23.31L51.15 21.59C51.15 21.49 51.15 21.4 51.13 21.28L50.27 17.9C50.21 17.67 50.19 17.59 50.1 17.4L49.37 15.53C49.14 15.01 48.91 14.48 48.61 13.98L48.15 13.16C48.02 12.95 48.07 12.91 47.9 12.7L46.6 10.73C46.5 10.63 46.29 10.25 46.14 10.21H32.09C31.88 10.63 32.01 11.51 32.01 12.1V16.17C32.01 16.78 31.88 17.68 32.09 18.12H46V23.7C45.45 23.83 40.19 23.74 39.18 23.74C36.89 23.74 34.61 23.72 32.32 23.74C31.88 23.74 32.05 24.05 32.05 25.17V28.57C32.05 29.2 32.09 29.7 32.09 30.27C32.09 31.03 32.15 33.08 32.07 33.67C32.01 34.13 32.05 34.8 32.05 35.35C32.05 35.9 31.95 36.4 31.95 37.01C31.95 37.56 31.82 37.97 31.82 38.56C31.82 38.9 31.74 38.98 31.72 39.32C31.7 39.84 31.2 41.63 31.03 42.03C30.67 42.79 30.32 43.6 29.75 44.21C29.6 44.38 29.52 44.55 29.35 44.67L28.83 45.19C28.52 45.5 28.14 45.8 27.76 46.05C27.66 46.11 27.57 46.15 27.47 46.22C26.65 46.77 26.06 46.98 25.18 47.33C25.01 47.39 25.03 47.41 24.87 47.46L23.86 47.73C23.63 47.79 23.38 47.81 23.17 47.88C22.92 47.96 22.67 47.96 22.37 47.98C22.12 48 22.18 48.02 22.01 48.06C21.88 48.08 21.76 48.08 21.61 48.1C21.36 48.12 21.09 48.1 20.81 48.14C19.66 48.31 18.25 48.2 17.1 48.12L15.82 48.08V48.07Z" fill="#9CC72F"/>
<path fill-rule="evenodd" clip-rule="evenodd" d="M15.82 48.07V48L15.78 48.05L15.82 48.07Z" fill="#9CC72E"/>
<path d="M62.91 44.73C63.2 44.77 63.48 44.83 63.73 44.96C63.98 45.06 64.21 45.21 64.38 45.42C64.57 45.61 64.72 45.84 64.8 46.09C64.9 46.36 64.97 46.66 64.97 46.99C64.97 47.32 64.91 47.62 64.82 47.89C64.72 48.16 64.59 48.39 64.4 48.58C64.23 48.77 64.02 48.94 63.75 49.04C63.5 49.17 63.23 49.23 62.91 49.25V51.16H62.22V49.25C61.91 49.23 61.63 49.17 61.38 49.04C61.13 48.94 60.9 48.77 60.71 48.58C60.54 48.39 60.4 48.16 60.29 47.89C60.19 47.62 60.14 47.32 60.14 46.99C60.14 46.66 60.18 46.36 60.29 46.09C60.37 45.82 60.52 45.59 60.69 45.4C60.88 45.21 61.09 45.06 61.34 44.96C61.61 44.83 61.89 44.77 62.22 44.73V42.97H62.91V44.73ZM60.9 47C60.9 47.5 61 47.88 61.21 48.17C61.42 48.44 61.76 48.61 62.22 48.67V45.33C61.99 45.35 61.78 45.41 61.61 45.5C61.44 45.58 61.32 45.69 61.19 45.81C61.09 45.96 61.02 46.12 60.96 46.31C60.92 46.5 60.9 46.73 60.9 46.98V47ZM64.21 47C64.21 46.5 64.11 46.12 63.9 45.85C63.69 45.58 63.35 45.41 62.91 45.37V48.68C63.37 48.62 63.69 48.45 63.9 48.18C64.11 47.89 64.21 47.51 64.21 47.01V47ZM66.79 44.8V47.48L66.75 48.49L68.83 44.8H69.75V49.2H69.06V46.62L69.1 45.53L67.04 49.2H66.1V44.8H66.79ZM71.87 44.8V46.62H74.05V44.8H74.78V49.2H74.05V47.23H71.87V49.2H71.14V44.8H71.87ZM78.66 49.2L78.51 48.59H78.47C78.39 48.72 78.3 48.82 78.22 48.9C78.12 48.98 78.03 49.07 77.93 49.11C77.83 49.17 77.7 49.21 77.57 49.24C77.44 49.26 77.3 49.28 77.13 49.28C76.94 49.28 76.77 49.26 76.63 49.2C76.46 49.16 76.34 49.07 76.23 48.97C76.1 48.87 76.02 48.72 75.96 48.55C75.9 48.38 75.86 48.19 75.86 47.96C75.86 47.54 76.03 47.18 76.32 46.95C76.63 46.72 77.1 46.59 77.73 46.57L78.49 46.53V46.26C78.49 46.09 78.47 45.95 78.43 45.82C78.39 45.69 78.33 45.61 78.26 45.53C78.18 45.47 78.09 45.4 77.99 45.38C77.89 45.34 77.76 45.32 77.61 45.32C77.4 45.32 77.19 45.36 77 45.42C76.81 45.48 76.62 45.57 76.45 45.65L76.18 45.1C76.39 45 76.6 44.89 76.85 44.83C77.08 44.75 77.35 44.73 77.61 44.73C77.88 44.73 78.13 44.75 78.32 44.79C78.51 44.85 78.68 44.94 78.8 45.06C78.95 45.19 79.03 45.33 79.09 45.52C79.15 45.69 79.19 45.92 79.19 46.17V49.19H78.67L78.66 49.2ZM77.32 48.68C77.49 48.68 77.63 48.66 77.76 48.62C77.91 48.56 78.03 48.49 78.14 48.39C78.24 48.29 78.31 48.16 78.37 47.99C78.43 47.84 78.45 47.65 78.45 47.44V47.04L77.88 47.08C77.63 47.08 77.44 47.1 77.27 47.14C77.1 47.18 76.98 47.24 76.87 47.33C76.79 47.41 76.7 47.5 76.66 47.6C76.62 47.7 76.6 47.83 76.6 47.96C76.6 48.21 76.66 48.4 76.81 48.51C76.94 48.64 77.1 48.68 77.31 48.68H77.32ZM81.26 44.8V46.62H83.44V44.8H84.17V49.2H83.44V47.23H81.26V49.2H80.53V44.8H81.26ZM87.26 49.28C86.99 49.28 86.74 49.24 86.5 49.15C86.25 49.07 86.06 48.94 85.87 48.75C85.7 48.56 85.58 48.33 85.47 48.06C85.37 47.77 85.32 47.43 85.32 47.03C85.32 46.59 85.36 46.23 85.47 45.96C85.57 45.67 85.72 45.41 85.89 45.25C86.08 45.06 86.27 44.91 86.52 44.85C86.75 44.77 87 44.72 87.28 44.72C87.49 44.72 87.7 44.74 87.89 44.78C88.1 44.82 88.27 44.88 88.39 44.95L88.18 45.56C88.12 45.54 88.05 45.52 87.97 45.48C87.91 45.46 87.82 45.44 87.74 45.42C87.66 45.4 87.57 45.38 87.51 45.38C87.43 45.36 87.36 45.36 87.28 45.36C86.86 45.36 86.57 45.49 86.38 45.76C86.17 46.03 86.09 46.45 86.09 47.02C86.09 47.59 86.17 48.01 86.38 48.26C86.57 48.53 86.86 48.66 87.26 48.66C87.47 48.66 87.66 48.64 87.85 48.58C88.02 48.54 88.19 48.48 88.33 48.41V49.06C88.18 49.14 88.02 49.19 87.87 49.23C87.7 49.27 87.49 49.29 87.26 49.29V49.28ZM92.97 47C92.97 47.36 92.93 47.69 92.82 47.99C92.74 48.26 92.61 48.51 92.44 48.7C92.27 48.89 92.06 49.04 91.83 49.14C91.6 49.24 91.33 49.29 91.03 49.29C90.76 49.29 90.51 49.25 90.25 49.14C90.02 49.04 89.83 48.89 89.66 48.7C89.49 48.51 89.35 48.26 89.26 47.99C89.16 47.7 89.11 47.36 89.11 47C89.11 46.64 89.15 46.31 89.24 46.04C89.34 45.75 89.47 45.52 89.64 45.33C89.81 45.14 90 44.99 90.25 44.89C90.48 44.79 90.75 44.74 91.05 44.74C91.32 44.74 91.57 44.78 91.81 44.89C92.04 44.99 92.25 45.14 92.42 45.33C92.59 45.52 92.71 45.75 92.82 46.04C92.9 46.31 92.97 46.65 92.97 47ZM89.89 47C89.89 47.57 89.97 47.99 90.16 48.26C90.35 48.55 90.64 48.68 91.06 48.68C91.48 48.68 91.75 48.55 91.94 48.26C92.11 47.99 92.21 47.57 92.21 47C92.21 46.43 92.11 46.01 91.94 45.74C91.75 45.47 91.46 45.32 91.04 45.32C90.62 45.32 90.33 45.47 90.16 45.74C89.97 46.01 89.89 46.43 89.89 47ZM97.48 45.91C97.48 46.18 97.4 46.41 97.23 46.56C97.06 46.73 96.85 46.83 96.56 46.87V46.89C96.71 46.91 96.85 46.95 96.98 46.99C97.11 47.03 97.23 47.09 97.32 47.18C97.42 47.26 97.49 47.37 97.55 47.49C97.59 47.62 97.63 47.74 97.63 47.93C97.63 48.1 97.59 48.27 97.53 48.41C97.47 48.58 97.36 48.7 97.24 48.83C97.11 48.93 96.93 49.04 96.72 49.1C96.51 49.16 96.26 49.18 95.94 49.18H94.14V44.78H95.94C96.17 44.78 96.36 44.8 96.57 44.84C96.76 44.88 96.91 44.94 97.05 45.03C97.18 45.11 97.3 45.22 97.36 45.37C97.44 45.52 97.49 45.68 97.49 45.89L97.48 45.91ZM96.89 47.88C96.89 47.63 96.81 47.46 96.64 47.36C96.45 47.28 96.2 47.21 95.86 47.21H94.83V48.59H95.88C96.03 48.59 96.15 48.59 96.28 48.57C96.41 48.55 96.51 48.51 96.59 48.44C96.69 48.38 96.76 48.31 96.8 48.21C96.86 48.13 96.88 48 96.88 47.87L96.89 47.88ZM96.79 45.99C96.79 45.78 96.73 45.63 96.58 45.55C96.43 45.45 96.2 45.4 95.93 45.4H94.84V46.62H95.8C95.97 46.62 96.09 46.6 96.22 46.58C96.35 46.56 96.45 46.54 96.53 46.48C96.61 46.44 96.68 46.38 96.72 46.29C96.76 46.21 96.78 46.1 96.78 46L96.79 45.99ZM99.49 46.62H100.43C101 46.62 101.42 46.72 101.69 46.93C101.96 47.12 102.11 47.43 102.11 47.85C102.11 48.06 102.07 48.25 102.01 48.42C101.95 48.57 101.84 48.71 101.72 48.84C101.59 48.94 101.41 49.05 101.2 49.11C100.99 49.17 100.74 49.19 100.42 49.19H98.76V44.79H99.49V46.61V46.62ZM103.52 49.2H102.79V44.8H103.52V49.2ZM99.49 47.21V48.59H100.37C100.52 48.59 100.64 48.59 100.77 48.57C100.9 48.55 101 48.51 101.08 48.44C101.18 48.4 101.25 48.31 101.29 48.23C101.35 48.15 101.37 48.04 101.37 47.89C101.37 47.76 101.35 47.66 101.31 47.58C101.27 47.48 101.21 47.41 101.1 47.37C101.02 47.31 100.91 47.27 100.79 47.24C100.66 47.22 100.52 47.2 100.35 47.2H99.49V47.21ZM105.6 44.8V47.48L105.56 48.49L107.64 44.8H108.56V49.2H107.87V46.62L107.91 45.53L105.85 49.2H104.91V44.8H105.6ZM108.28 42.95C108.26 43.16 108.22 43.35 108.15 43.52C108.09 43.67 107.98 43.79 107.86 43.92C107.73 44.02 107.59 44.11 107.4 44.15C107.21 44.21 106.98 44.23 106.71 44.23C106.44 44.23 106.21 44.21 106.02 44.15C105.83 44.11 105.68 44.02 105.56 43.92C105.46 43.82 105.37 43.69 105.31 43.52C105.25 43.35 105.23 43.18 105.21 42.95H105.9C105.9 43.12 105.92 43.24 105.96 43.35C106 43.45 106.04 43.54 106.13 43.6C106.19 43.66 106.28 43.68 106.38 43.73C106.46 43.75 106.59 43.75 106.74 43.75C106.87 43.75 106.97 43.75 107.05 43.71C107.15 43.69 107.24 43.65 107.3 43.58C107.38 43.52 107.45 43.43 107.49 43.33C107.53 43.25 107.57 43.12 107.57 42.95H108.28ZM114.45 44.8H115.23L113.57 46.92L115.39 49.21H114.55L112.81 46.99V49.21H112.08V44.81H112.81V46.95L114.45 44.81V44.8ZM119.71 47C119.71 47.36 119.65 47.69 119.56 47.99C119.48 48.26 119.35 48.51 119.18 48.7C119.01 48.89 118.8 49.04 118.57 49.14C118.32 49.24 118.07 49.29 117.77 49.29C117.47 49.29 117.22 49.25 116.99 49.14C116.76 49.04 116.57 48.89 116.38 48.7C116.21 48.51 116.09 48.26 116 47.99C115.9 47.7 115.85 47.36 115.85 47C115.85 46.64 115.89 46.31 115.98 46.04C116.06 45.75 116.21 45.52 116.36 45.33C116.53 45.14 116.74 44.99 116.97 44.89C117.22 44.79 117.49 44.74 117.79 44.74C118.06 44.74 118.31 44.78 118.55 44.89C118.78 44.99 118.99 45.14 119.16 45.33C119.33 45.52 119.45 45.75 119.56 46.04C119.64 46.31 119.71 46.65 119.71 47ZM116.63 47C116.63 47.57 116.71 47.99 116.9 48.26C117.09 48.55 117.38 48.68 117.78 48.68C118.2 48.68 118.49 48.55 118.68 48.26C118.85 47.99 118.95 47.57 118.95 47C118.95 46.43 118.85 46.01 118.66 45.74C118.49 45.47 118.2 45.32 117.78 45.32C117.36 45.32 117.07 45.47 116.9 45.74C116.71 46.01 116.63 46.43 116.63 47ZM121.58 44.8V46.62H123.76V44.8H124.49V49.2H123.76V47.23H121.58V49.2H120.85V44.8H121.58ZM127.58 49.28C127.31 49.28 127.06 49.24 126.82 49.15C126.57 49.07 126.38 48.94 126.19 48.75C126.02 48.56 125.9 48.33 125.79 48.06C125.69 47.77 125.64 47.43 125.64 47.03C125.64 46.59 125.68 46.23 125.79 45.96C125.89 45.67 126.04 45.41 126.21 45.25C126.4 45.06 126.59 44.91 126.84 44.85C127.07 44.77 127.32 44.72 127.6 44.72C127.81 44.72 128.02 44.74 128.21 44.78C128.42 44.82 128.59 44.88 128.71 44.95L128.5 45.56C128.44 45.54 128.37 45.52 128.29 45.48C128.23 45.46 128.14 45.44 128.06 45.42C127.98 45.4 127.89 45.38 127.83 45.38C127.75 45.36 127.68 45.36 127.6 45.36C127.18 45.36 126.89 45.49 126.7 45.76C126.49 46.03 126.41 46.45 126.41 47.02C126.41 47.59 126.49 48.01 126.7 48.26C126.89 48.53 127.18 48.66 127.58 48.66C127.79 48.66 127.98 48.64 128.17 48.58C128.34 48.54 128.51 48.48 128.65 48.41V49.06C128.5 49.14 128.34 49.19 128.17 49.23C128.02 49.27 127.81 49.29 127.58 49.29V49.28ZM129.03 44.8H129.79L130.67 47.28C130.69 47.38 130.73 47.49 130.77 47.62C130.81 47.72 130.85 47.85 130.87 47.96C130.91 48.09 130.93 48.19 130.95 48.32C130.97 48.42 130.99 48.53 131.01 48.61H131.03C131.05 48.55 131.05 48.46 131.09 48.34C131.11 48.24 131.15 48.11 131.19 47.98C131.21 47.85 131.25 47.71 131.29 47.58C131.33 47.45 131.35 47.35 131.39 47.27L132.19 44.82H132.95L131.21 49.81C131.13 50.02 131.04 50.21 130.96 50.38C130.88 50.55 130.77 50.69 130.67 50.82C130.54 50.95 130.42 51.03 130.27 51.09C130.1 51.17 129.91 51.19 129.7 51.19C129.57 51.19 129.45 51.19 129.34 51.17C129.24 51.15 129.15 51.15 129.09 51.13V50.54C129.09 50.54 129.22 50.56 129.3 50.58H129.55C129.7 50.58 129.8 50.58 129.89 50.54C129.99 50.52 130.08 50.48 130.14 50.41C130.2 50.35 130.27 50.26 130.33 50.18C130.37 50.1 130.41 50.01 130.46 49.91L130.69 49.26L129.01 44.81L129.03 44.8ZM136.79 49.2H136.06V45.4H135.1C135.04 46.09 134.97 46.7 134.89 47.18C134.81 47.66 134.68 48.06 134.55 48.38C134.42 48.69 134.26 48.9 134.09 49.05C133.9 49.2 133.69 49.26 133.46 49.26C133.38 49.26 133.31 49.26 133.25 49.24C133.19 49.24 133.12 49.24 133.08 49.22V48.72C133.14 48.74 133.21 48.74 133.27 48.74C133.42 48.74 133.56 48.66 133.67 48.51C133.8 48.34 133.9 48.11 133.98 47.78C134.08 47.47 134.17 47.05 134.23 46.56C134.29 46.06 134.36 45.47 134.4 44.8H136.79V49.2ZM138.91 46.62H140.02C140.59 46.62 141.01 46.72 141.28 46.93C141.55 47.12 141.7 47.43 141.7 47.85C141.7 48.06 141.66 48.25 141.6 48.42C141.54 48.57 141.43 48.71 141.31 48.84C141.18 48.94 141 49.05 140.79 49.11C140.58 49.17 140.33 49.19 140.01 49.19H138.21V44.79H138.92V46.61L138.91 46.62ZM138.91 47.21V48.59H139.96C140.11 48.59 140.23 48.59 140.36 48.57C140.49 48.55 140.59 48.51 140.67 48.44C140.77 48.4 140.84 48.31 140.88 48.23C140.94 48.15 140.96 48.04 140.96 47.89C140.96 47.76 140.94 47.66 140.9 47.58C140.86 47.48 140.8 47.41 140.69 47.37C140.61 47.31 140.5 47.27 140.38 47.24C140.25 47.22 140.11 47.2 139.94 47.2H138.91V47.21ZM145.6 45.4H144.32V49.2H143.59V45.4H142.31V44.79H145.6V45.4ZM148.93 49.2L148.78 48.59H148.74C148.66 48.72 148.57 48.82 148.49 48.9C148.41 48.98 148.3 49.07 148.2 49.11C148.1 49.17 147.99 49.21 147.84 49.24C147.71 49.26 147.57 49.28 147.4 49.28C147.23 49.28 147.04 49.26 146.9 49.2C146.75 49.16 146.61 49.07 146.5 48.97C146.4 48.87 146.29 48.72 146.23 48.55C146.17 48.38 146.15 48.19 146.15 47.96C146.15 47.54 146.3 47.18 146.61 46.95C146.9 46.72 147.39 46.59 148.02 46.57L148.75 46.53V46.26C148.75 46.09 148.73 45.95 148.69 45.82C148.65 45.69 148.59 45.61 148.52 45.53C148.44 45.47 148.35 45.4 148.25 45.38C148.15 45.34 148.02 45.32 147.87 45.32C147.66 45.32 147.45 45.36 147.26 45.42C147.07 45.48 146.88 45.57 146.71 45.65L146.46 45.1C146.65 45 146.86 44.89 147.11 44.83C147.36 44.75 147.61 44.73 147.87 44.73C148.16 44.73 148.39 44.75 148.58 44.79C148.79 44.85 148.96 44.94 149.08 45.06C149.21 45.19 149.31 45.33 149.37 45.52C149.43 45.69 149.45 45.92 149.45 46.17V49.19H148.93V49.2ZM147.59 48.68C147.76 48.68 147.9 48.66 148.05 48.62C148.18 48.56 148.3 48.49 148.41 48.39C148.51 48.29 148.6 48.16 148.64 47.99C148.7 47.84 148.72 47.65 148.72 47.44V47.04L148.15 47.08C147.92 47.08 147.71 47.1 147.54 47.14C147.39 47.18 147.25 47.24 147.16 47.33C147.06 47.41 146.99 47.5 146.95 47.6C146.91 47.7 146.89 47.83 146.89 47.96C146.89 48.21 146.95 48.4 147.08 48.51C147.21 48.64 147.37 48.68 147.58 48.68H147.59ZM151.53 44.8V46.62H153.73V44.8H154.44V49.2H153.73V47.23H151.53V49.2H150.82V44.8H151.53ZM158.6 45.4H157.32V49.2H156.59V45.4H155.31V44.79H158.6V45.4Z" fill="#030303"/>
<path d="M74.15 1.94L69.3 13.73C68.96 14.53 68.63 15.24 68.29 15.87C67.95 16.52 67.53 17.04 67.07 17.49C66.61 17.94 66.06 18.27 65.41 18.5C64.78 18.73 64 18.84 63.08 18.84C62.7 18.84 62.28 18.82 61.84 18.76C61.38 18.72 60.98 18.61 60.58 18.51V15.51C60.96 15.66 61.36 15.76 61.82 15.82C62.26 15.88 62.68 15.9 63.08 15.9C63.48 15.9 63.79 15.86 64.07 15.75C64.34 15.65 64.57 15.52 64.76 15.33C64.95 15.14 65.12 14.93 65.24 14.7C65.37 14.45 65.49 14.2 65.58 13.92L59.81 1.94H63.54L66.71 9.13C66.75 9.23 66.81 9.38 66.88 9.55C66.96 9.7 67.03 9.86 67.09 10.03C67.13 10.2 67.19 10.34 67.24 10.47C67.3 10.62 67.32 10.72 67.32 10.78H67.47C67.47 10.7 67.49 10.59 67.53 10.47C67.55 10.32 67.59 10.18 67.63 10.01C67.67 9.86 67.73 9.7 67.78 9.55C67.82 9.38 67.88 9.26 67.93 9.15L70.49 1.93H74.14L74.15 1.94ZM79.78 9.75H80.47C81.48 9.75 82.23 9.56 82.74 9.18C83.26 8.78 83.52 8.15 83.52 7.27C83.52 6.45 83.29 5.84 82.83 5.47C82.37 5.07 81.66 4.88 80.69 4.88H79.79V9.75H79.78ZM87.03 7.14C87.03 7.87 86.93 8.57 86.72 9.24C86.49 9.91 86.13 10.5 85.63 11.02C85.13 11.52 84.46 11.92 83.64 12.24C82.82 12.53 81.79 12.7 80.58 12.7H79.78V18.59H76.24V1.94H80.88C81.95 1.94 82.87 2.07 83.65 2.3C84.43 2.53 85.06 2.89 85.58 3.33C86.08 3.77 86.44 4.32 86.69 4.97C86.94 5.6 87.05 6.33 87.05 7.15L87.03 7.14ZM98.78 18.6L97.63 14.61H91.88L90.73 18.6H87.16L92.57 1.86H96.89L102.34 18.6H98.77H98.78ZM96.81 11.68L95.74 8.03C95.7 7.88 95.61 7.67 95.53 7.36C95.45 7.05 95.34 6.71 95.24 6.33C95.14 5.95 95.05 5.57 94.95 5.2C94.87 4.8 94.8 4.49 94.76 4.21C94.74 4.38 94.7 4.59 94.63 4.82C94.59 5.03 94.53 5.28 94.46 5.53C94.39 5.78 94.33 6.03 94.25 6.31C94.19 6.56 94.12 6.81 94.06 7.04C94 7.25 93.96 7.46 93.89 7.63C93.85 7.82 93.81 7.94 93.79 8.03L92.74 11.68H96.81ZM117.13 18.6H113.61V4.88H110.69C110.61 5.59 110.5 6.37 110.4 7.23C110.3 8.09 110.19 8.93 110.06 9.77C109.96 10.63 109.83 11.45 109.7 12.22C109.57 13 109.45 13.67 109.34 14.25C109.17 14.98 108.98 15.63 108.75 16.2C108.52 16.77 108.23 17.25 107.87 17.65C107.51 18.03 107.09 18.32 106.57 18.53C106.07 18.72 105.44 18.82 104.7 18.82C104.39 18.82 104.07 18.8 103.78 18.76C103.49 18.72 103.21 18.66 102.96 18.57V15.65C103.17 15.71 103.36 15.78 103.55 15.82C103.76 15.86 103.97 15.88 104.2 15.88C104.43 15.88 104.64 15.82 104.81 15.71C104.96 15.61 105.12 15.44 105.25 15.19C105.4 14.92 105.52 14.58 105.63 14.14C105.73 13.7 105.86 13.18 105.99 12.52C106.05 12.12 106.14 11.6 106.26 10.88C106.39 10.19 106.51 9.37 106.66 8.45C106.79 7.53 106.93 6.5 107.1 5.39C107.25 4.28 107.39 3.12 107.54 1.93H117.13V18.58V18.6Z" fill="#030303"/>
<path d="M69.9 33.95H70.05C70.64 33.95 71.16 33.85 71.6 33.68C72.04 33.49 72.4 33.24 72.69 32.92C72.98 32.61 73.21 32.23 73.36 31.81C73.51 31.37 73.57 30.91 73.57 30.4C73.57 29.96 73.51 29.54 73.38 29.12C73.25 28.72 73.07 28.36 72.79 28.05C72.52 27.74 72.18 27.48 71.78 27.32C71.36 27.13 70.88 27.05 70.33 27.05H69.89V33.95H69.9ZM66.75 39.32V36.74H66.52C65.7 36.74 64.95 36.66 64.3 36.47C63.63 36.3 63.06 36.05 62.56 35.74C62.08 35.43 61.66 35.07 61.3 34.65C60.94 34.23 60.67 33.79 60.46 33.33C60.23 32.85 60.08 32.39 59.98 31.88C59.88 31.4 59.83 30.92 59.83 30.45C59.83 29.67 59.96 28.92 60.21 28.16C60.46 27.43 60.84 26.75 61.36 26.19C61.88 25.6 62.53 25.12 63.35 24.78C64.15 24.42 65.09 24.23 66.2 24.23H66.75V22.17H69.9V24.23H70.47C71.58 24.23 72.53 24.42 73.34 24.78C74.14 25.12 74.81 25.6 75.33 26.19C75.85 26.76 76.23 27.43 76.48 28.16C76.73 28.92 76.86 29.67 76.86 30.45C76.86 30.91 76.82 31.39 76.71 31.88C76.61 32.38 76.46 32.84 76.23 33.33C76.02 33.79 75.75 34.23 75.39 34.65C75.05 35.07 74.61 35.43 74.11 35.74C73.63 36.05 73.04 36.31 72.39 36.47C71.72 36.66 70.96 36.74 70.12 36.74H69.89V39.32H66.74H66.75ZM66.75 27.05H66.35C65.78 27.05 65.32 27.13 64.9 27.32C64.5 27.49 64.17 27.74 63.91 28.05C63.64 28.36 63.43 28.72 63.3 29.12C63.17 29.54 63.11 29.96 63.11 30.4C63.11 30.9 63.17 31.36 63.32 31.81C63.47 32.23 63.7 32.61 63.99 32.92C64.26 33.23 64.64 33.49 65.08 33.68C65.5 33.85 66.02 33.95 66.61 33.95H66.74V27.05H66.75ZM80.01 22.41H83.16V30.95C83.16 31.18 83.14 31.43 83.14 31.68C83.14 31.93 83.12 32.18 83.12 32.44C83.12 32.7 83.1 32.94 83.08 33.2C83.06 33.77 83.02 34.33 83.02 34.9H83.08L89.88 22.42H94.1V39.1H90.95V31.26C90.95 30.82 90.95 30.34 90.97 29.79C90.99 29.24 91.01 28.72 91.05 28.24C91.07 27.65 91.11 27.07 91.15 26.5H91.07L84.23 39.11H80.01V22.43V22.41ZM111.01 39.09H107.47V31.9H101.83V39.09H98.29V22.41H101.83V28.95H107.47V22.41H111.01V39.09ZM124.7 39.09L123.57 35.08H117.82L116.67 39.09H113.1L118.51 22.35H122.83L128.26 39.09H124.69H124.7ZM122.75 32.15L121.68 28.5C121.62 28.37 121.55 28.14 121.47 27.83C121.39 27.52 121.28 27.18 121.18 26.8C121.08 26.42 120.97 26.04 120.89 25.67C120.81 25.29 120.74 24.96 120.7 24.71C120.66 24.88 120.62 25.07 120.57 25.3C120.53 25.53 120.47 25.76 120.4 26.03C120.34 26.28 120.27 26.53 120.19 26.79C120.13 27.06 120.06 27.29 120 27.52C119.94 27.75 119.9 27.96 119.83 28.13C119.79 28.3 119.75 28.42 119.73 28.51L118.66 32.16H122.75V32.15ZM143.08 39.09H139.56V31.9H133.9V39.09H130.38V22.41H133.9V28.95H139.56V22.41H143.08V39.09ZM154.36 25.12C153.69 25.12 153.08 25.27 152.56 25.52C152.04 25.77 151.62 26.15 151.26 26.65C150.9 27.13 150.63 27.74 150.46 28.43C150.27 29.14 150.19 29.92 150.19 30.8C150.19 31.68 150.25 32.48 150.42 33.17C150.59 33.86 150.84 34.45 151.18 34.91C151.52 35.39 151.96 35.75 152.48 36C153 36.25 153.63 36.38 154.37 36.38C155.04 36.38 155.71 36.3 156.4 36.15C157.07 35.98 157.81 35.77 158.6 35.5V38.46C158.24 38.61 157.89 38.73 157.53 38.84C157.17 38.94 156.8 39.05 156.44 39.11C156.06 39.17 155.68 39.24 155.29 39.26C154.89 39.3 154.47 39.32 154.03 39.32C152.75 39.32 151.64 39.11 150.69 38.69C149.75 38.29 148.97 37.7 148.36 36.97C147.73 36.21 147.27 35.31 146.98 34.29C146.69 33.24 146.54 32.07 146.54 30.79C146.54 29.51 146.71 28.38 147.06 27.31C147.4 26.26 147.9 25.36 148.55 24.6C149.22 23.84 150.04 23.24 151 22.82C151.96 22.4 153.1 22.19 154.36 22.19C155.18 22.19 156.02 22.29 156.84 22.5C157.68 22.71 158.48 23 159.23 23.36L158.1 26.23C157.47 25.94 156.84 25.66 156.21 25.45C155.58 25.22 154.97 25.11 154.36 25.11V25.12Z" fill="#9CC72F"/>
</svg>
