<svg width="19" height="20" viewBox="0 0 19 20" fill="none" xmlns="http://www.w3.org/2000/svg">
<path d="M12.85 19.05C11.65 19.02 10.6 18.7 9.59996 18.21C7.16996 17.04 5.16001 15.32 3.40001 13.29C2.31001 12.03 1.37005 10.67 0.700054 9.13999C0.330054 8.28999 0.0300005 7.40999 0.0200005 6.47999C0.0100005 4.76999 0.329976 3.15999 1.61998 1.89999C2.03998 1.48999 2.52996 1.2 3.09996 1.02C3.54996 0.869997 3.90005 0.979989 4.20005 1.33999C5.22005 2.55999 5.93 3.95 6.39 5.46C6.51 5.85 6.42002 6.18999 6.16002 6.49999C5.65001 7.08999 5.10998 7.63999 4.49998 8.11999C4.15998 8.38999 4.13007 8.59 4.34007 8.96C5.74007 11.4 7.65007 13.31 10.0901 14.71C10.4601 14.92 10.66 14.89 10.93 14.55C11.41 13.94 11.96 13.39 12.55 12.89C12.86 12.62 13.2001 12.54 13.5901 12.66C15.1001 13.13 16.4901 13.83 17.7101 14.86C18.0901 15.19 18.18 15.47 18.03 15.95C17.59 17.3 16.6101 18.09 15.3401 18.6C14.5301 18.92 13.67 18.98 12.87 19.05H12.85Z" fill="#FDFEFE"/>
</svg>
